M48
;DRILL file {KiCad 4.0.7} date 06/26/18 12:22:51
;FORMAT={-:-/ absolute / inch / decimal}
FMAT,2
INCH,TZ
T1C0.039
T2C0.118
%
G90
G05
M72
T1
X3.9898Y-4.0453
X3.9965Y-4.2319
X4.0898Y-4.0453
X4.0965Y-4.2319
X4.5417Y-5.0843
X4.5925Y-3.1835
X4.6417Y-5.0843
X4.6925Y-3.1835
X4.7508Y-5.0843
X4.7925Y-3.1835
X4.8508Y-5.0843
X4.8925Y-3.1835
X4.9524Y-5.0835
X4.9693Y-4.0118
X4.9693Y-4.1118
X4.9693Y-4.2118
X4.9693Y-4.3118
X4.9693Y-4.4118
X4.9693Y-4.5118
X4.9693Y-4.6118
X4.9925Y-3.1835
X5.0524Y-5.0835
X5.0925Y-3.1835
X5.1524Y-5.0835
X5.1693Y-3.9618
X5.1693Y-4.0618
X5.1693Y-4.1618
X5.1693Y-4.2618
X5.1693Y-4.3618
X5.1693Y-4.4618
X5.1693Y-4.5618
X5.1693Y-4.6618
X5.1925Y-3.1835
X5.2524Y-5.0835
X5.2925Y-3.1835
X5.3524Y-5.0835
X5.3925Y-3.1835
X5.4524Y-5.0835
X5.4925Y-3.1835
X5.5524Y-5.0835
X5.6524Y-3.1835
X5.6524Y-5.0835
X5.7512Y-3.4425
X5.7512Y-3.5425
X5.7524Y-3.1835
X5.8524Y-3.1835
X5.8524Y-5.0835
X5.8543Y-3.4409
X5.8543Y-3.5409
X5.9524Y-3.1835
X5.9524Y-5.0835
X6.0524Y-3.1835
X6.0524Y-5.0835
X6.152Y-4.3492
X6.152Y-4.4492
X6.152Y-4.5492
X6.152Y-4.6492
X6.1524Y-3.1835
X6.1524Y-5.0835
X6.1531Y-3.9516
X6.1531Y-4.0516
X6.1531Y-4.1516
X6.2524Y-3.1835
X6.2524Y-5.0835
X6.2543Y-3.3386
X6.2543Y-3.4386
X6.2543Y-3.5386
X6.2543Y-3.6386
X6.3524Y-3.1835
X6.3524Y-5.0835
T2
X4.4031Y-5.0854
X4.4543Y-3.1878
X6.4543Y-3.7862
X6.4543Y-4.8846
T0
M30
